<svg xmlns="http://www.w3.org/2000/svg" fill="#4d7c0f" viewBox="0 0 100 125" enable-background="new 0 0 100 100" xml:space="preserve"><path d="M41.492,20.287c7.653,0,14.313,4.217,17.811,10.448c1.229-0.389,2.535-0.601,3.893-0.601c5.82,0,10.735,3.858,12.34,9.155  c10.384,0.961,18.517,9.689,18.517,20.323c0,11.278-9.143,20.42-20.42,20.42H26.368c-11.277,0-20.42-9.142-20.42-20.42  c0-9.457,6.438-17.39,15.165-19.712C21.54,28.999,30.487,20.287,41.492,20.287 M41.492,17.287c-11.893,0-21.701,8.784-23.197,20.36  C9.16,40.997,2.948,49.744,2.948,59.611c0,12.914,10.506,23.42,23.42,23.42h47.264c12.914,0,23.42-10.506,23.42-23.42  c0-11.522-8.187-21.12-19.337-23.058c-2.525-5.707-8.137-9.42-14.52-9.42c-0.837,0-1.669,0.065-2.491,0.196  C56.35,21.083,49.18,17.287,41.492,17.287L41.492,17.287z"/><path d="M51.561,44.572c-0.276-0.169-0.299-0.478-0.05-0.686l6.636-5.537c0.249-0.208,0.678-0.237,0.953-0.065l10.962,7.176  c0.274,0.172,0.294,0.48,0.042,0.685l-6.626,5.393c-0.252,0.205-0.684,0.233-0.96,0.064L51.561,44.572z"/><path d="M49.966,44.316"/><path d="M63.675,52.919c-0.246-0.212-0.674-0.248-0.952-0.081l-10.38,6.257c-0.277,0.167-0.304,0.478-0.058,0.688l5.763,4.952  c0.246,0.212,0.677,0.251,0.957,0.088l10.526-6.116c0.28-0.163,0.309-0.47,0.063-0.682L63.675,52.919z"/><path d="M51.511,60.349c-0.249-0.208-0.453-0.112-0.453,0.212v12.083c0,0.324,0.227,0.45,0.503,0.281l10.593-6.508  c0.276-0.17,0.503-0.574,0.503-0.898v-1.161c0-0.324-0.229-0.456-0.509-0.292l-3.117,1.823c-0.28,0.163-0.713,0.128-0.962-0.08  L51.511,60.349z"/><path d="M49.72,44.572c0.277-0.169,0.299-0.478,0.051-0.686l-6.636-5.537c-0.249-0.208-0.678-0.237-0.953-0.065L31.22,45.46  c-0.275,0.172-0.294,0.48-0.043,0.685l6.627,5.393c0.251,0.205,0.684,0.233,0.96,0.064L49.72,44.572z"/><path d="M52.147,44.316"/><path d="M37.606,52.919c0.245-0.212,0.674-0.248,0.951-0.081l10.38,6.257c0.278,0.167,0.304,0.478,0.058,0.688l-5.763,4.952  c-0.245,0.212-0.677,0.251-0.957,0.088l-10.526-6.116c-0.28-0.163-0.309-0.47-0.063-0.682L37.606,52.919z"/><path d="M49.77,60.349c0.249-0.208,0.453-0.112,0.453,0.212v12.083c0,0.324-0.226,0.45-0.502,0.281l-10.594-6.508  c-0.275-0.17-0.502-0.574-0.502-0.898v-1.161c0-0.324,0.229-0.456,0.509-0.292l3.117,1.823c0.279,0.163,0.713,0.128,0.962-0.08  L49.77,60.349z"/></svg>
